<svg width="32" height="32" viewBox="0 0 32 32" fill="none" xmlns="http://www.w3.org/2000/svg">
<path d="M23.2645 22.0013C22.8676 21.6173 22.2345 21.6278 21.8505 22.0247C21.4665 22.4217 21.477 23.0548 21.8739 23.4388L23.2645 22.0013ZM26.5047 27.9188C26.9017 28.3028 27.5348 28.2923 27.9188 27.8954C28.3028 27.4984 28.2923 26.8653 27.8954 26.4813L26.5047 27.9188ZM14.2 19.2001C14.2 19.7523 14.6478 20.2001 15.2 20.2001C15.7523 20.2001 16.2 19.7523 16.2 19.2001H14.2ZM16.2 11.2C16.2 10.6478 15.7523 10.2 15.2 10.2C14.6478 10.2 14.2 10.6478 14.2 11.2H16.2ZM11.2 14.2C10.6478 14.2 10.2 14.6478 10.2 15.2C10.2 15.7523 10.6478 16.2 11.2 16.2V14.2ZM19.2001 16.2C19.7523 16.2 20.2001 15.7523 20.2001 15.2C20.2001 14.6478 19.7523 14.2 19.2001 14.2V16.2ZM24.7067 15.2534C24.7067 20.4743 20.4743 24.7067 15.2534 24.7067V26.7067C21.5789 26.7067 26.7067 21.5789 26.7067 15.2534H24.7067ZM15.2534 24.7067C10.0325 24.7067 5.80005 20.4743 5.80005 15.2534H3.80005C3.80005 21.5789 8.92788 26.7067 15.2534 26.7067V24.7067ZM5.80005 15.2534C5.80005 10.0325 10.0325 5.80005 15.2534 5.80005V3.80005C8.92788 3.80005 3.80005 8.92788 3.80005 15.2534H5.80005ZM15.2534 5.80005C20.4743 5.80005 24.7067 10.0325 24.7067 15.2534H26.7067C26.7067 8.92788 21.5789 3.80005 15.2534 3.80005V5.80005ZM21.8739 23.4388L26.5047 27.9188L27.8954 26.4813L23.2645 22.0013L21.8739 23.4388ZM16.2 19.2001V15.2H14.2V19.2001H16.2ZM16.2 15.2V11.2H14.2V15.2H16.2ZM11.2 16.2H15.2V14.2H11.2V16.2ZM15.2 16.2H19.2001V14.2H15.2V16.2Z" fill="white"/>
</svg>
